<svg width="112" height="156" viewBox="0 0 112 156" fill="none" xmlns="http://www.w3.org/2000/svg">
<path d="M2.73926 33.3317C3.97166 33.3317 4.97852 34.323 4.97852 35.5553C4.97855 56.3199 22.0292 73.2213 42.9951 73.2213C44.2277 73.2213 45.2343 74.2128 45.2344 75.4449C45.2344 76.6772 44.2278 77.6686 42.9951 77.6686C31.6382 77.6686 20.9629 73.291 12.9414 65.3424C4.91927 57.3933 0.500014 46.8132 0.5 35.5553C0.5 34.3231 1.50666 33.3317 2.73926 33.3317Z" fill="#E85A2C" stroke="#E85A2C"/>
<path d="M69.0048 33.3314C80.3614 33.3314 91.0369 37.7088 99.0585 45.6576C107.081 53.6064 111.5 64.187 111.5 75.4447C111.5 76.677 110.493 77.6683 109.261 77.6683C108.028 77.6683 107.021 76.6769 107.021 75.4447C107.021 54.6802 89.9706 37.7787 69.0048 37.7787C67.7722 37.7786 66.7655 36.7872 66.7655 35.5551C66.7655 34.3229 67.7722 33.3315 69.0048 33.3314Z" fill="#E85A2C" stroke="#E85A2C"/>
<path d="M59.6249 76.9888C60.5042 76.2784 61.7996 76.3289 62.6191 77.1411C63.4955 78.0098 63.4953 79.4209 62.6181 80.2896C54.5861 88.2486 43.9136 92.6323 32.5712 92.6323C21.2289 92.6322 10.5565 88.2485 2.52435 80.2896C1.64766 79.4208 1.64757 78.0097 2.52435 77.1411C3.39868 76.275 4.81415 76.275 5.68842 77.1411C20.5105 91.8288 44.6325 91.829 59.455 77.1411L59.6249 76.9888Z" fill="#E85A2C" stroke="#E85A2C"/>
<path d="M79.429 18.3677C90.7714 18.3678 101.444 22.7515 109.476 30.7104C110.352 31.5792 110.352 32.9894 109.475 33.8579C108.601 34.724 107.186 34.7242 106.312 33.8579C91.4899 19.1704 67.3687 19.1708 52.5462 33.8579H52.5452C52.1074 34.2915 51.5342 34.5083 50.9632 34.5083C50.3921 34.5082 49.8185 34.2913 49.3812 33.8579C48.5047 32.9891 48.5051 31.579 49.3821 30.7104C57.4141 22.7515 68.0866 18.3677 79.429 18.3677Z" fill="#E85A2C" stroke="#E85A2C"/>
<path d="M76.1276 66.163C77.3604 66.163 78.3671 67.1542 78.3669 68.3866L78.3542 69.4403C78.0871 80.3032 73.6968 90.4733 65.9255 98.1737C57.9039 106.123 47.2289 110.5 35.8718 110.5C34.6392 110.5 33.6325 109.508 33.6325 108.276C33.6326 107.044 34.6392 106.053 35.8718 106.053C56.8379 106.053 73.8881 89.151 73.8884 68.3866C73.8884 67.1544 74.8953 66.1631 76.1276 66.163Z" fill="#E85A2C" stroke="#E85A2C"/>
<path d="M76.1276 0.5C77.3603 0.5 78.3679 1.4914 78.3679 2.72363C78.3678 3.95588 77.36 4.94727 76.1276 4.94727C65.9619 4.94694 56.4139 8.86263 49.238 15.9736C42.0619 23.0843 38.1122 32.5438 38.112 42.6133C38.1117 43.8454 37.1042 44.8369 35.8718 44.8369C34.6391 44.8367 33.6325 43.8453 33.6325 42.6133L33.6452 41.5605C33.9121 30.6971 38.3028 20.5269 46.0739 12.8262C54.0952 4.87769 64.7706 0.50002 76.1266 0.5H76.1276Z" fill="#E85A2C" stroke="#E85A2C"/>
<path d="M77.8466 48.9351C78.721 48.0691 80.1363 48.069 81.0106 48.9351C89.0425 56.8942 93.4678 67.472 93.4677 78.7153C93.4677 89.959 89.0425 100.537 81.0106 108.497H81.0096C80.5721 108.929 79.9985 109.146 79.4276 109.146C78.8568 109.146 78.283 108.929 77.8456 108.496C76.9693 107.627 76.969 106.217 77.8456 105.348C92.6654 90.6629 92.666 66.7689 77.8466 52.0835C76.9698 51.2147 76.9697 49.8037 77.8466 48.9351Z" fill="#E85A2C" stroke="#E85A2C"/>
<path d="M30.9905 2.5033C31.8648 1.63754 33.2794 1.63738 34.1536 2.5033C35.0303 3.37209 35.0303 4.78294 34.1536 5.65173C19.3339 20.3371 19.3337 44.2319 34.1536 58.9174C35.0303 59.7861 35.0304 61.1962 34.1536 62.0648C33.7161 62.4982 33.1425 62.7152 32.5715 62.7152C32.0008 62.7151 31.427 62.4986 30.9895 62.0648V62.0638C22.9579 54.1046 18.5326 43.5277 18.5325 32.2845C18.5325 21.0409 22.9585 10.4625 30.9905 2.5033Z" fill="#E85A2C" stroke="#E85A2C"/>
<path d="M55.9999 42.3066C63.3348 42.3067 69.3094 48.2206 69.3094 55.5C69.3094 56.7975 69.1192 58.0807 68.744 59.3135C68.3857 60.4913 67.1349 61.1515 65.9559 60.7998C64.7742 60.4469 64.0984 59.2082 64.4569 58.0283C64.7045 57.2135 64.83 56.3626 64.83 55.5C64.8298 50.6825 60.8718 46.7549 55.9989 46.7549C51.1262 46.7551 47.169 50.6826 47.1688 55.5C47.1688 60.3178 51.1261 64.2459 55.9989 64.2461C58.311 64.2461 60.4953 63.3686 62.1522 61.7744C63.0392 60.9209 64.4544 60.9416 65.3153 61.8203C66.1795 62.7019 66.1584 64.1123 65.2694 64.9678C62.7729 67.3708 59.4791 68.6933 55.9999 68.6934C48.6651 68.6934 42.6903 62.7794 42.6903 55.5C42.6903 48.2205 48.6648 42.3066 55.9999 42.3066Z" fill="#E85A2C" stroke="#E85A2C"/>
<path d="M26.5814 127.72C27.0614 127.72 27.4481 127.867 27.7414 128.16C28.0347 128.427 28.1814 128.72 28.1814 129.04C28.1814 129.36 28.1014 129.547 27.9414 129.6C25.2747 129.6 23.2081 130.6 21.7414 132.6C20.2747 134.6 19.5414 137.453 19.5414 141.16C19.5414 144.84 20.3414 147.96 21.9414 150.52C23.5414 153.053 25.7681 154.32 28.6214 154.32C31.4747 154.32 33.7414 152.973 35.4214 150.28C37.1281 147.587 37.9814 144.2 37.9814 140.12C37.9814 136.013 36.9814 132.613 34.9814 129.92C33.0081 127.2 30.4214 125.84 27.2214 125.84C24.0214 125.84 21.2881 126.76 19.0214 128.6C16.7814 130.413 15.6081 132.587 15.5014 135.12C15.3947 135.333 15.1414 135.44 14.7414 135.44C14.0481 135.387 13.7014 134.933 13.7014 134.08C13.7014 133.227 13.8747 132.36 14.2214 131.48C14.5681 130.573 15.1281 129.667 15.9014 128.76C16.6747 127.853 17.5814 127.04 18.6214 126.32C19.6614 125.573 20.9547 124.973 22.5014 124.52C24.0481 124.067 25.7147 123.84 27.5014 123.84C31.7947 123.84 35.2214 125.387 37.7814 128.48C40.3681 131.547 41.6614 135.44 41.6614 140.16C41.6614 144.88 40.4747 148.693 38.1014 151.6C35.7547 154.48 32.5947 155.92 28.6214 155.92C24.6747 155.92 21.5547 154.547 19.2614 151.8C16.9947 149.053 15.8614 145.347 15.8614 140.68C15.8614 138.493 16.2081 136.533 16.9014 134.8C17.6214 133.067 18.5414 131.707 19.6614 130.72C21.9281 128.72 24.2347 127.72 26.5814 127.72ZM47.9205 147.2V153.56C47.6538 153.933 47.1871 154.12 46.5205 154.12C45.8538 154.12 45.3205 153.92 44.9205 153.52C44.5205 153.093 44.3205 152.48 44.3205 151.68V136.48C44.5871 136.107 45.0538 135.92 45.7205 135.92C46.3871 135.92 46.9205 136.133 47.3205 136.56C47.7205 136.96 47.9205 137.56 47.9205 138.36V141.4C49.2538 138.093 51.0938 136.44 53.4405 136.44C55.1205 136.44 56.3471 136.893 57.1205 137.8C57.8938 138.68 58.2805 139.733 58.2805 140.96C58.2805 141.627 58.0805 142.16 57.6805 142.56C57.2805 142.96 56.8938 143.16 56.5205 143.16C55.8271 143.16 55.3738 143 55.1605 142.68C55.3205 142.28 55.4005 141.707 55.4005 140.96C55.4005 140.213 55.1471 139.533 54.6405 138.92C54.1338 138.307 53.5205 138 52.8005 138C51.5471 138 50.4138 139.147 49.4005 141.44C48.4138 143.707 47.9205 145.627 47.9205 147.2ZM59.0673 147V131.64C59.0673 128.173 59.4007 125.667 60.0673 124.12C60.734 122.547 62.014 121.76 63.9073 121.76C64.9207 121.76 65.7073 122.187 66.2673 123.04C66.8273 123.893 67.1073 125.107 67.1073 126.68C67.1073 129.533 65.6273 132.44 62.6673 135.4V137.52C63.654 136.453 64.9073 135.92 66.4273 135.92C68.7473 135.92 70.654 136.707 72.1473 138.28C73.6407 139.853 74.3873 142.08 74.3873 144.96C74.3873 147.84 73.6673 150.093 72.2273 151.72C70.7873 153.32 68.9207 154.12 66.6273 154.12C64.3607 154.12 62.534 153.467 61.1473 152.16C59.7607 150.853 59.0673 149.133 59.0673 147ZM70.5873 144.96C70.5873 142.187 70.294 140.253 69.7073 139.16C69.1207 138.04 68.0807 137.48 66.5873 137.48C65.094 137.48 64.0673 137.947 63.5073 138.88C62.9473 139.813 62.6673 141.413 62.6673 143.68V145.76C62.6673 148.16 62.974 149.893 63.5873 150.96C64.2273 152.027 65.2673 152.56 66.7073 152.56C68.1473 152.56 69.1473 151.987 69.7073 150.84C70.294 149.693 70.5873 147.733 70.5873 144.96ZM63.9473 123.32C63.414 123.32 63.0673 123.867 62.9073 124.96C62.7473 126.027 62.6673 128.28 62.6673 131.72V133.48C64.4807 131.133 65.3873 128.853 65.3873 126.64C65.3873 124.427 64.9073 123.32 63.9473 123.32ZM76.6323 132C76.179 131.547 75.9523 130.987 75.9523 130.32C75.9523 129.653 76.179 129.093 76.6323 128.64C77.0857 128.16 77.6457 127.92 78.3123 127.92C78.979 127.92 79.539 128.16 79.9923 128.64C80.4723 129.093 80.7123 129.653 80.7123 130.32C80.7123 130.987 80.4723 131.547 79.9923 132C79.539 132.453 78.979 132.68 78.3123 132.68C77.6457 132.68 77.0857 132.453 76.6323 132ZM76.4723 138.36C76.4723 137.56 76.6723 136.96 77.0723 136.56C77.4723 136.133 77.979 135.92 78.5923 135.92C79.2057 135.92 79.699 136.107 80.0723 136.48V147.96C80.0723 149.48 80.3657 150.627 80.9523 151.4C81.539 152.173 82.339 152.56 83.3523 152.56C84.3657 152.56 85.3123 151.947 86.1923 150.72C87.0723 149.493 87.5123 147.507 87.5123 144.76C87.5657 144.6 87.7657 144.52 88.1123 144.52C88.5923 144.52 88.8323 145.227 88.8323 146.64C88.8323 148.693 88.2723 150.453 87.1523 151.92C86.0323 153.387 84.6057 154.12 82.8723 154.12C80.7123 154.12 79.099 153.48 78.0323 152.2C76.9923 150.92 76.4723 149.107 76.4723 146.76V138.36ZM86.8023 132.44C86.8023 131.64 87.0023 131.04 87.4023 130.64C87.8023 130.213 88.309 130 88.9223 130C89.5357 130 90.029 130.187 90.4023 130.56V136.48H95.8823C96.4423 136.48 96.8023 136.587 96.9623 136.8C97.149 137.013 97.2423 137.373 97.2423 137.88H90.4023V147.96C90.4023 149.427 90.8157 150.56 91.6423 151.36C92.4957 152.16 93.469 152.56 94.5623 152.56C96.2157 152.56 97.429 151.947 98.2023 150.72C98.9757 149.493 99.3623 147.507 99.3623 144.76C99.4157 144.6 99.6157 144.52 99.9623 144.52C100.442 144.52 100.682 145.227 100.682 146.64C100.682 148.8 100.136 150.587 99.0423 152C97.9757 153.413 96.3223 154.12 94.0823 154.12C91.8423 154.12 90.069 153.533 88.7623 152.36C87.4557 151.187 86.8023 149.44 86.8023 147.12V132.44Z" fill="#E85A2C"/>
</svg>
